<mxfile host="65bd71144e">
    <diagram id="PmTb-9xRaC7F9LgP9H3v" name="Page-1">
        <mxGraphModel dx="1074" dy="741" grid="1" gridSize="10" guides="1" tooltips="1" connect="1" arrows="1" fold="1" page="1" pageScale="1" pageWidth="850" pageHeight="1100" math="0" shadow="0">
            <root>
                <mxCell id="0"/>
                <mxCell id="1" parent="0"/>
                <mxCell id="3" value="" style="rounded=0;whiteSpace=wrap;html=1;" vertex="1" parent="1">
                    <mxGeometry x="70" y="80" width="690" height="90" as="geometry"/>
                </mxCell>
                <mxCell id="4" value="Guess the number!" style="text;html=1;align=center;verticalAlign=middle;resizable=0;points=[];autosize=1;strokeColor=none;fillColor=none;" vertex="1" parent="1">
                    <mxGeometry x="90" y="110" width="120" height="20" as="geometry"/>
                </mxCell>
                <mxCell id="2" value="" style="rounded=0;whiteSpace=wrap;html=1;" vertex="1" parent="1">
                    <mxGeometry x="70" y="160" width="690" height="590" as="geometry"/>
                </mxCell>
                <mxCell id="17" value="Try to guess the correct number!&lt;br&gt;Pick a number between 1-6" style="text;html=1;align=center;verticalAlign=middle;resizable=0;points=[];autosize=1;strokeColor=none;fillColor=none;" vertex="1" parent="1">
                    <mxGeometry x="75" y="185" width="190" height="30" as="geometry"/>
                </mxCell>
                <mxCell id="18" value="" style="line;strokeWidth=2;html=1;fillColor=#000000;" vertex="1" parent="1">
                    <mxGeometry x="100" y="270" width="160" height="10" as="geometry"/>
                </mxCell>
                <mxCell id="19" value="" style="shape=waypoint;sketch=0;fillStyle=solid;size=6;pointerEvents=1;points=[];fillColor=none;resizable=0;rotatable=0;perimeter=centerPerimeter;snapToPoint=1;" vertex="1" parent="1">
                    <mxGeometry x="160" y="255" width="40" height="40" as="geometry"/>
                </mxCell>
                <mxCell id="20" value="Button" style="rounded=0;whiteSpace=wrap;html=1;fillColor=#FFFFFF;shadow=1;" vertex="1" parent="1">
                    <mxGeometry x="110" y="320" width="120" height="30" as="geometry"/>
                </mxCell>
            </root>
        </mxGraphModel>
    </diagram>
</mxfile>